# xmcd CD database file
#
# Track frame offsets:
#	150
#	17252
#	32214
#	48708
#	64473
#	80134
#	96251
#	110704
#	129700
#	147300
#	161108
#	178691
#	191985
#	204966
#	225092
#	241293
#	256190
#	271597
#	284878
#
# Disc length: 4005 seconds
#
# Revision: 2
# Processed by: cddbd v1.5.2PL0 Copyright (c) Steve Scherf et al.
# Submitted via: CdAid (MTCDDB.DLL V2003.12.21)
#
DISCID=1c0fa313
DTITLE=Jorge and Mateus - Jorge and Mateus - 2009
DYEAR=2009
DGENRE=Country
TTITLE0=É Bão Demais
TTITLE1=Espelho
TTITLE2=Pirraça
TTITLE3=Um dia te levo Comigo
TTITLE4=Pra Nunca dizer Adeus
TTITLE5=Voa Beija-Flor
TTITLE6=Mistérios
TTITLE7=Pout Pourri
TTITLE8=Saudade
TTITLE9=O Mundo é Tão Pequeno
TTITLE10=Amor Covarde
TTITLE11=Se eu Pedir cê Volta
TTITLE12=Só eu Sei
TTITLE13=Não sai da Minha Vida
TTITLE14=Louca Paixão
TTITLE15=Quebre o Silêncio
TTITLE16=Só Falta Você
TTITLE17=O que os Olhos não vêem, o coração não sente
TTITLE18=Tudo ou Nada
EXTD=ID3G:   2 YEAR: 2009
EXTT0=
EXTT1=
EXTT2=
EXTT3=
EXTT4=
EXTT5=
EXTT6=
EXTT7=
EXTT8=
EXTT9=
EXTT10=
EXTT11=
EXTT12=
EXTT13=
EXTT14=
EXTT15=
EXTT16=
EXTT17=
EXTT18=
PLAYORDER=
